<?xml version="1.0" standalone="no"?>
<!DOCTYPE svg PUBLIC "-//W3C//DTD SVG 20010904//EN"
 "http://www.w3.org/TR/2001/REC-SVG-20010904/DTD/svg10.dtd">
<svg version="1.0" xmlns="http://www.w3.org/2000/svg"
 width="540.000000pt" height="540.000000pt" viewBox="0 0 540.000000 540.000000"
 preserveAspectRatio="xMidYMid meet">
<metadata>
Created by potrace 1.11, written by Peter Selinger 2001-2013
</metadata>
<g transform="translate(0.000000,540.000000) scale(0.100000,-0.100000)"
fill="#000000" stroke="none">
<path d="M2528 5315 c-2 -2 -33 -7 -68 -10 -58 -5 -84 -9 -155 -19 -11 -2 -20
-4 -20 -6 0 -1 -13 -4 -29 -6 -16 -3 -47 -12 -70 -20 -23 -8 -50 -16 -61 -18
-32 -4 -123 -41 -213 -85 -45 -23 -85 -41 -89 -41 -3 0 -21 -11 -39 -25 -18
-14 -35 -25 -39 -25 -24 0 -225 -176 -225 -197 0 -6 -6 -13 -12 -16 -25 -9
-70 -116 -73 -174 -2 -30 -6 -58 -9 -61 -3 -3 -22 -6 -41 -8 -34 -2 -83 -32
-126 -77 -23 -24 -129 -181 -129 -191 0 -4 -6 -21 -13 -39 -8 -18 -15 -35 -15
-40 -1 -4 -9 -24 -18 -45 -25 -57 -72 -223 -78 -272 -1 -9 -4 -20 -7 -25 -3
-6 -4 -20 -3 -32 0 -13 -2 -23 -5 -23 -4 0 -7 -10 -8 -22 0 -13 -4 -61 -8
-108 -13 -153 -5 -377 15 -430 1 -3 3 -9 4 -15 17 -90 88 -267 124 -307 9 -11
10 -18 4 -18 -6 0 -15 6 -19 14 -4 8 -24 23 -43 35 -30 17 -39 18 -59 8 -44
-22 -80 -78 -94 -147 -14 -66 -15 -255 -3 -340 4 -25 9 -67 11 -95 2 -27 6
-61 9 -75 2 -14 10 -59 16 -100 7 -41 16 -79 20 -85 4 -5 10 -21 13 -35 4 -14
21 -43 40 -65 30 -35 37 -38 78 -36 115 7 135 -11 153 -134 3 -16 5 -30 6 -30
1 0 3 -11 5 -25 5 -36 53 -219 70 -262 8 -21 12 -38 9 -38 -4 0 -2 -6 3 -13 5
-6 20 -39 33 -72 28 -70 81 -172 121 -233 16 -24 29 -45 29 -48 0 -3 5 -10 10
-17 23 -27 46 -56 60 -77 16 -23 23 -32 103 -125 58 -69 334 -344 393 -392 91
-76 307 -186 389 -199 17 -3 41 -9 55 -13 21 -7 149 -7 158 -1 3 3 7 4 57 14
22 4 60 14 85 23 25 8 50 16 55 17 74 19 260 123 381 215 12 9 32 23 44 31 32
21 154 113 160 119 3 3 26 23 52 44 26 21 75 64 108 97 34 33 66 60 71 60 5 0
9 3 9 8 1 4 26 34 56 67 61 66 156 204 192 278 13 26 27 47 31 47 4 0 8 6 8
14 0 8 16 51 35 97 36 85 50 120 53 129 35 114 48 151 58 164 13 18 57 27 72
16 38 -28 128 -8 140 31 4 10 10 19 15 19 16 0 64 117 95 230 1 3 5 12 8 20 4
8 8 26 11 40 2 14 12 52 22 85 10 33 17 64 16 69 -2 4 2 22 7 40 26 82 39 221
28 287 -9 50 -16 66 -45 99 -33 37 -45 37 -116 0 -31 -17 -56 -26 -56 -20 0 5
4 10 8 10 7 0 104 183 106 200 1 7 35 81 46 102 6 10 10 23 10 29 0 6 7 25 15
42 41 90 64 277 59 482 -3 138 -10 236 -20 285 -3 14 -7 39 -10 55 -2 17 -7
46 -11 65 -3 19 -7 40 -7 45 -11 83 -74 278 -118 359 -64 119 -107 182 -209
302 -30 36 -174 170 -219 204 -25 19 -46 38 -48 42 -2 5 -8 8 -13 8 -10 0 -69
39 -79 51 -5 7 -148 86 -190 106 -99 46 -214 93 -235 97 -5 1 -23 6 -40 13
-16 6 -48 16 -70 21 -22 6 -58 17 -80 23 -22 7 -47 14 -55 15 -30 3 -85 15
-105 21 -11 4 -27 7 -35 8 -83 10 -150 18 -175 21 -43 6 -333 13 -337 9z"/>
</g>
</svg>
